<?xml version="1.0"?>
<svg xmlns="http://www.w3.org/2000/svg" xmlns:xlink="http://www.w3.org/1999/xlink" xmlns:svgjs="http://svgjs.com/svgjs" version="1.1" width="512" height="512" x="0" y="0" viewBox="0 0 512 512" style="enable-background:new 0 0 512 512" xml:space="preserve" class=""><g><g xmlns="http://www.w3.org/2000/svg" id="Flat"><path d="m392 104v384h-272v-384l72-32h128z" fill="#086464" data-original="#314c73" style="" class=""/><path d="m392 110.97v377.03h-272v-159.56c102.88-33.5 205.14-100 272-217.47z" fill="#064545" data-original="#2e466c" style="" class=""/><path d="m320 72h-128l5.78-34.69a16.03 16.03 0 0 1 15.77-13.31h84.9a16.014 16.014 0 0 1 15.76 13.24z" fill="#064545" data-original="#34507b" style="" class=""/><path d="m488 283.38v156.62h-64l-32-208v-128a215.564 215.564 0 0 1 94.77 156.46 212.814 212.814 0 0 1 1.23 22.92z" fill="#086464" data-original="#34507b" style="" class=""/><path d="m488 488h-56l-8-48h64z" fill="#064545" data-original="#2e466c" style="" class=""/><path d="m120 440h272v48h-272z" fill="#032525" data-original="#283f61" style="" class=""/><path d="m96 456 24 32 48-32-16-32z" fill="#064545" data-original="#2e466c" style="" class=""/><g fill="#283f61"><path d="m248 128h16v360h-16z" fill="#032525" data-original="#283f61" style="" class=""/><path d="m128 360h80v16h-80z" transform="matrix(.6 -.8 .8 .6 -227.201 281.605)" fill="#032525" data-original="#283f61" style="" class=""/><path d="m336 328h16v80h-16z" transform="matrix(.8 -.6 .6 .8 -152 280)" fill="#032525" data-original="#283f61" style="" class=""/></g><path d="m462.11 180.95a215.148 215.148 0 0 1 24.66 79.51l-30.77 11.54-32-72z" fill="#064545" data-original="#395a8d" style="" class=""/><path d="m237 112-117 48.9v-17.34l110.85-46.33z" fill="#064545" data-original="#2e466c" style="" class=""/><path d="m392 143.6v17.32l-118.15-49.15 6.15-14.77z" fill="#064545" data-original="#2e466c" style="" class=""/><path d="m296 72v41.4c-9.28 7.97-22.15 15.91-40 22.6-17.85-6.69-30.72-14.63-40-22.6v-41.4z" fill="#b6a400" data-original="#f98500" style="" class=""/><path d="m256 136c-17.85-6.69-30.72-14.63-40-22.6-24-20.6-24-41.4-24-41.4l5.78-34.69a15.952 15.952 0 0 1 5.7-9.73q2.07 2.19 4.04 4.42a195.652 195.652 0 0 1 27.12 40c17.63 34.19 21.36 64 21.36 64z" fill="#032525" data-original="#283f61" style="" class=""/><path d="m320 72s0 20.8-24 41.4c-9.28 7.97-22.15 15.91-40 22.6 0 0 3.73-29.81 21.36-64a193.371 193.371 0 0 1 31.17-44.42 15.982 15.982 0 0 1 5.68 9.66z" fill="#032525" data-original="#283f61" style="" class=""/><path d="m120 104a181.8 181.8 0 0 0 -63.5 64.293l-3.515 6.026a212.745 212.745 0 0 0 -28.985 107.197 212.745 212.745 0 0 0 33.789 115.044l38.211 59.44 56-32-32-88z" fill="#086464" data-original="#34507b" style="" class=""/><rect fill="#064545" height="111.427" rx="8" transform="matrix(.933 -.359 .359 .933 -97.378 59.624)" width="16" x="103.869" y="236.322" data-original="#2e466c" style="" class=""/></g></g></svg>
