<?xml version="1.0"?>
<svg xmlns="http://www.w3.org/2000/svg" xmlns:xlink="http://www.w3.org/1999/xlink" xmlns:svgjs="http://svgjs.com/svgjs" version="1.1" width="512" height="512" x="0" y="0" viewBox="0 0 512 512" style="enable-background:new 0 0 512 512" xml:space="preserve" class=""><g><g xmlns="http://www.w3.org/2000/svg" id="Outline"><path d="M494.725,259.614a223.567,223.567,0,0,0-98.287-162.27c-.026-.017-.054-.029-.081-.046-.133-.087-.276-.159-.415-.237-.192-.11-.384-.22-.583-.313-.038-.017-.072-.041-.11-.059L327.184,66.438l-5.1-30.584a24.01,24.01,0,0,0-8.52-14.487c-.024-.02-.051-.036-.075-.056A24.054,24.054,0,0,0,298.45,16h-84.9a23.988,23.988,0,0,0-14.936,5.239c-.054.042-.112.078-.165.121l-.017.014-.01.008h0a24,24,0,0,0-8.534,14.612l-5.78,34.69A8.056,8.056,0,0,0,184,72c0,1.153.309,18.508,16.856,37.643L128,140V109.2l43.249-19.222-6.5-14.621-48,21.333c-.1.044-.183.1-.278.149-.2.1-.4.188-.589.3-.052.031-.1.065-.155.1l-.02.013a190.337,190.337,0,0,0-66.124,67.013l-3.515,6.026a220.748,220.748,0,0,0,4.989,230.6l38.212,59.44c.041.064.091.119.133.181.067.1.125.2.2.293l24,32a7.991,7.991,0,0,0,6.406,3.2H392a8,8,0,0,0,8-8V440a8,8,0,0,0-8-8H264V141.45c14.572-5.961,25.836-12.764,34.527-19.73L384,157.333V416h16V336.613l24.109,152.7A8,8,0,0,0,432,496h56a8,8,0,0,0,8-8V283.38A221.651,221.651,0,0,0,494.725,259.614Zm-16.664-4.432-17.812,6.68-25.833-58.125,24.2-12.1A205.829,205.829,0,0,1,478.061,255.182ZM247.345,80h17.31A235.825,235.825,0,0,0,256,102.429,235.825,235.825,0,0,0,247.345,80Zm25.227-16H239.438a204.62,204.62,0,0,0-21.43-32H294A203.993,203.993,0,0,0,272.572,64ZM205.18,41.575a189.862,189.862,0,0,1,22.35,34.092,218.671,218.671,0,0,1,17.634,47.025C203.854,102.7,200.326,76.57,200.027,72.5ZM32,281.516A204.963,204.963,0,0,1,59.891,178.35l3.515-6.026A174.379,174.379,0,0,1,112,118.841V292.914L87.467,229.128l-14.934,5.744L142.178,420.4,98.623,445.287,64.518,392.234A204.355,204.355,0,0,1,32,281.516ZM107.837,458.45l40.789-23.308,9.06,18.119-35.827,23.885ZM146.422,480l26.015-17.344a8,8,0,0,0,2.718-10.234L172.944,448H248v32ZM384,448v32H264V448ZM164.944,432l-5.582-11.164-6.854-18.848L198.4,340.8l-12.8-9.6-39.622,52.83L128,334.59V157.333l85.473-35.613c8.691,6.966,19.955,13.769,34.527,19.73V432ZM284.473,75.661a189.337,189.337,0,0,1,22.35-34.079l5.151,30.925c-.289,3.961-3.782,30.17-45.154,50.192A218.228,218.228,0,0,1,284.473,75.661Zm26.671,33.982a71.7,71.7,0,0,0,14.838-26.23L384,109.2V140ZM400,119.636a208.509,208.509,0,0,1,50.985,57.931l-30.562,15.277a8,8,0,0,0-3.734,10.405l32,72a8,8,0,0,0,10.12,4.242l20.852-7.821c.22,3.893.339,7.805.339,11.71V432H430.863L400,231.388ZM480,480H438.777l-5.333-32H480Z" fill="#EDEDED" data-original="#000000" style=""/><rect x="336" y="328" width="16" height="80" transform="translate(-151.999 279.994) rotate(-36.869)" fill="#EDEDED" data-original="#000000" style=""/></g></g></svg>